<svg width="146" height="52" viewBox="0 0 146 52" fill="none" xmlns="http://www.w3.org/2000/svg">
<path d="M62.9432 7.72727V31H58.0227V7.72727H62.9432ZM74.7642 37.9091C73.196 37.9091 71.8513 37.6932 70.7301 37.2614C69.6165 36.8371 68.7301 36.2576 68.071 35.5227C67.4119 34.7879 66.9839 33.9621 66.7869 33.0455L71.2642 32.4432C71.4006 32.7917 71.6165 33.1174 71.9119 33.4205C72.2074 33.7235 72.5975 33.9659 73.0824 34.1477C73.5748 34.3371 74.1733 34.4318 74.8778 34.4318C75.9309 34.4318 76.7983 34.1742 77.4801 33.6591C78.1695 33.1515 78.5142 32.2992 78.5142 31.1023V27.9091H78.3097C78.0975 28.3939 77.7794 28.8523 77.3551 29.2841C76.9309 29.7159 76.3854 30.0682 75.7188 30.3409C75.0521 30.6136 74.2566 30.75 73.3324 30.75C72.0218 30.75 70.8286 30.447 69.7528 29.8409C68.6847 29.2273 67.8324 28.2917 67.196 27.0341C66.5672 25.7689 66.2528 24.1705 66.2528 22.2386C66.2528 20.2614 66.5748 18.6098 67.2188 17.2841C67.8627 15.9583 68.7188 14.9659 69.7869 14.3068C70.8627 13.6477 72.0407 13.3182 73.321 13.3182C74.2983 13.3182 75.1165 13.4848 75.7756 13.8182C76.4347 14.1439 76.965 14.553 77.3665 15.0455C77.7756 15.5303 78.09 16.0076 78.3097 16.4773H78.4915V13.5455H83.2983V31.1705C83.2983 32.6553 82.9347 33.8977 82.2074 34.8977C81.4801 35.8977 80.4725 36.6477 79.1847 37.1477C77.9044 37.6553 76.4309 37.9091 74.7642 37.9091ZM74.8665 27.1136C75.6468 27.1136 76.3059 26.9205 76.8438 26.5341C77.3892 26.1402 77.8059 25.5795 78.0938 24.8523C78.3892 24.1174 78.5369 23.2386 78.5369 22.2159C78.5369 21.1932 78.393 20.3068 78.1051 19.5568C77.8172 18.7992 77.4006 18.2121 76.8551 17.7955C76.3097 17.3788 75.6468 17.1705 74.8665 17.1705C74.071 17.1705 73.4006 17.3864 72.8551 17.8182C72.3097 18.2424 71.8968 18.8333 71.6165 19.5909C71.3362 20.3485 71.196 21.2235 71.196 22.2159C71.196 23.2235 71.3362 24.0947 71.6165 24.8295C71.9044 25.5568 72.3172 26.1212 72.8551 26.5227C73.4006 26.9167 74.071 27.1136 74.8665 27.1136ZM91.9915 20.9091V31H87.1506V13.5455H91.7642V16.625H91.9688C92.3551 15.6098 93.0028 14.8068 93.9119 14.2159C94.821 13.6174 95.9233 13.3182 97.2188 13.3182C98.4309 13.3182 99.4877 13.5833 100.389 14.1136C101.291 14.6439 101.991 15.4015 102.491 16.3864C102.991 17.3636 103.241 18.5303 103.241 19.8864V31H98.4006V20.75C98.4081 19.6818 98.1354 18.8485 97.5824 18.25C97.0294 17.6439 96.268 17.3409 95.2983 17.3409C94.6468 17.3409 94.071 17.4811 93.571 17.7614C93.0786 18.0417 92.6922 18.4508 92.4119 18.9886C92.1392 19.5189 91.9991 20.1591 91.9915 20.9091ZM107.057 31V13.5455H111.898V31H107.057ZM109.489 11.2955C108.769 11.2955 108.152 11.0568 107.636 10.5795C107.129 10.0947 106.875 9.51515 106.875 8.84091C106.875 8.17424 107.129 7.60227 107.636 7.125C108.152 6.64015 108.769 6.39773 109.489 6.39773C110.208 6.39773 110.822 6.64015 111.33 7.125C111.845 7.60227 112.102 8.17424 112.102 8.84091C112.102 9.51515 111.845 10.0947 111.33 10.5795C110.822 11.0568 110.208 11.2955 109.489 11.2955ZM125.06 13.5455V17.1818H114.548V13.5455H125.06ZM116.935 9.36364H121.776V25.6364C121.776 26.0833 121.844 26.4318 121.98 26.6818C122.116 26.9242 122.306 27.0947 122.548 27.1932C122.798 27.2917 123.086 27.3409 123.412 27.3409C123.639 27.3409 123.866 27.322 124.094 27.2841C124.321 27.2386 124.495 27.2045 124.616 27.1818L125.378 30.7841C125.135 30.8598 124.795 30.947 124.355 31.0455C123.916 31.1515 123.382 31.2159 122.753 31.2386C121.586 31.2841 120.563 31.1288 119.685 30.7727C118.813 30.4167 118.135 29.8636 117.651 29.1136C117.166 28.3636 116.927 27.4167 116.935 26.2727V9.36364ZM135.98 31.3409C134.185 31.3409 132.639 30.9773 131.344 30.25C130.056 29.5152 129.063 28.4773 128.366 27.1364C127.67 25.7879 127.321 24.1932 127.321 22.3523C127.321 20.5568 127.67 18.9811 128.366 17.625C129.063 16.2689 130.045 15.2121 131.31 14.4545C132.582 13.697 134.075 13.3182 135.787 13.3182C136.938 13.3182 138.01 13.5038 139.003 13.875C140.003 14.2386 140.874 14.7879 141.616 15.5227C142.366 16.2576 142.95 17.1818 143.366 18.2955C143.783 19.4015 143.991 20.697 143.991 22.1818V23.5114H129.253V20.5114H139.435C139.435 19.8144 139.283 19.197 138.98 18.6591C138.677 18.1212 138.257 17.7008 137.719 17.3977C137.188 17.0871 136.571 16.9318 135.866 16.9318C135.132 16.9318 134.48 17.1023 133.912 17.4432C133.351 17.7765 132.912 18.2273 132.594 18.7955C132.276 19.3561 132.113 19.9811 132.105 20.6705V23.5227C132.105 24.3864 132.264 25.1326 132.582 25.7614C132.908 26.3902 133.366 26.875 133.957 27.2159C134.548 27.5568 135.249 27.7273 136.06 27.7273C136.598 27.7273 137.09 27.6515 137.537 27.5C137.984 27.3485 138.366 27.1212 138.685 26.8182C139.003 26.5152 139.245 26.1439 139.412 25.7045L143.889 26C143.662 27.0758 143.196 28.0152 142.491 28.8182C141.795 29.6136 140.893 30.2348 139.787 30.6818C138.688 31.1212 137.42 31.3409 135.98 31.3409Z" fill="white"/>
<path d="M108.773 37.2727C108.705 36.697 108.428 36.25 107.943 35.9318C107.458 35.6136 106.864 35.4545 106.159 35.4545C105.644 35.4545 105.193 35.5379 104.807 35.7045C104.424 35.8712 104.125 36.1004 103.909 36.392C103.697 36.6837 103.591 37.0152 103.591 37.3864C103.591 37.697 103.665 37.964 103.812 38.1875C103.964 38.4072 104.157 38.5909 104.392 38.7386C104.627 38.8826 104.873 39.0019 105.131 39.0966C105.388 39.1875 105.625 39.2614 105.841 39.3182L107.023 39.6364C107.326 39.7159 107.663 39.8258 108.034 39.9659C108.409 40.1061 108.767 40.2973 109.108 40.5398C109.453 40.7784 109.737 41.0852 109.96 41.4602C110.184 41.8352 110.295 42.2955 110.295 42.8409C110.295 43.4697 110.131 44.0379 109.801 44.5455C109.475 45.053 108.998 45.4564 108.369 45.7557C107.744 46.0549 106.985 46.2045 106.091 46.2045C105.258 46.2045 104.536 46.0701 103.926 45.8011C103.32 45.5322 102.843 45.1572 102.494 44.6761C102.15 44.1951 101.955 43.6364 101.909 43H103.364C103.402 43.4394 103.549 43.803 103.807 44.0909C104.068 44.375 104.398 44.5871 104.795 44.7273C105.197 44.8636 105.629 44.9318 106.091 44.9318C106.629 44.9318 107.112 44.8447 107.54 44.6705C107.968 44.4924 108.307 44.2462 108.557 43.9318C108.807 43.6136 108.932 43.2424 108.932 42.8182C108.932 42.4318 108.824 42.1174 108.608 41.875C108.392 41.6326 108.108 41.4356 107.756 41.2841C107.403 41.1326 107.023 41 106.614 40.8864L105.182 40.4773C104.273 40.2159 103.553 39.8428 103.023 39.358C102.492 38.8731 102.227 38.2386 102.227 37.4545C102.227 36.803 102.403 36.2348 102.756 35.75C103.112 35.2614 103.589 34.8826 104.188 34.6136C104.79 34.3409 105.462 34.2045 106.205 34.2045C106.955 34.2045 107.621 34.339 108.205 34.608C108.788 34.8731 109.25 35.2367 109.591 35.6989C109.936 36.161 110.117 36.6856 110.136 37.2727H108.773ZM112.612 46V34.3636H114.021V39.5455H120.226V34.3636H121.635V46H120.226V40.7955H114.021V46H112.612ZM134.274 40.1818C134.274 41.4091 134.053 42.4697 133.609 43.3636C133.166 44.2576 132.558 44.947 131.786 45.4318C131.013 45.9167 130.13 46.1591 129.138 46.1591C128.145 46.1591 127.263 45.9167 126.49 45.4318C125.717 44.947 125.109 44.2576 124.666 43.3636C124.223 42.4697 124.001 41.4091 124.001 40.1818C124.001 38.9545 124.223 37.8939 124.666 37C125.109 36.1061 125.717 35.4167 126.49 34.9318C127.263 34.447 128.145 34.2045 129.138 34.2045C130.13 34.2045 131.013 34.447 131.786 34.9318C132.558 35.4167 133.166 36.1061 133.609 37C134.053 37.8939 134.274 38.9545 134.274 40.1818ZM132.911 40.1818C132.911 39.1742 132.742 38.3239 132.405 37.6307C132.071 36.9375 131.619 36.4129 131.047 36.0568C130.479 35.7008 129.842 35.5227 129.138 35.5227C128.433 35.5227 127.795 35.7008 127.223 36.0568C126.655 36.4129 126.202 36.9375 125.865 37.6307C125.532 38.3239 125.365 39.1742 125.365 40.1818C125.365 41.1894 125.532 42.0398 125.865 42.733C126.202 43.4261 126.655 43.9508 127.223 44.3068C127.795 44.6629 128.433 44.8409 129.138 44.8409C129.842 44.8409 130.479 44.6629 131.047 44.3068C131.619 43.9508 132.071 43.4261 132.405 42.733C132.742 42.0398 132.911 41.1894 132.911 40.1818ZM136.643 46V34.3636H140.575C141.488 34.3636 142.234 34.5284 142.814 34.858C143.397 35.1837 143.829 35.625 144.109 36.1818C144.39 36.7386 144.53 37.3598 144.53 38.0455C144.53 38.7311 144.39 39.3542 144.109 39.9148C143.833 40.4754 143.405 40.9223 142.825 41.2557C142.246 41.5852 141.503 41.75 140.598 41.75H137.78V40.5H140.553C141.178 40.5 141.679 40.392 142.058 40.1761C142.437 39.9602 142.712 39.6686 142.882 39.3011C143.056 38.9299 143.143 38.5114 143.143 38.0455C143.143 37.5795 143.056 37.1629 142.882 36.7955C142.712 36.428 142.435 36.1402 142.053 35.9318C141.67 35.7197 141.162 35.6136 140.53 35.6136H138.053V46H136.643Z" fill="white"/>
<path opacity="0.5" d="M51.9874 0.35129L39.2645 47.8829C39.1999 48.0986 38.9411 48.1634 38.7901 48.0123L30.2723 39.4899L36.6553 15.6701C36.72 15.4544 36.5259 15.2602 36.3103 15.3249L12.5035 21.7114L4.0288 13.2321C3.87785 13.081 3.94254 12.8221 4.15818 12.7574L51.6423 0.00607603C51.858 -0.0370757 52.0521 0.157107 51.9874 0.35129Z" fill="#00B37E"/>
<path opacity="0.5" d="M30.272 39.49L26.9943 51.7882C26.9296 52.004 26.6708 52.0687 26.5199 51.9177L0.0822665 25.4873C-0.0686823 25.3362 -0.00399027 25.0773 0.211651 25.0126L12.5032 21.7115L30.272 39.49Z" fill="#00B37E"/>
<path d="M36.6552 15.6699L30.2722 39.4897L12.5034 21.7112L36.3102 15.3247C36.5258 15.26 36.7199 15.4542 36.6552 15.6699Z" fill="#00B37E"/>
</svg>
